HIERARCHY
ROOT Hips
{
 OFFSET 0.000000 0.000000 0.000000
 CHANNELS 6 Xposition Yposition Zposition Yrotation Xrotation Zrotation
 JOINT Chest
 {
  OFFSET 0.000000 9.581000 -0.001100
  CHANNELS 3 Yrotation Xrotation Zrotation
  JOINT Chest2
  {
   OFFSET 0.000000 9.561100 0.002200
   CHANNELS 3 Yrotation Xrotation Zrotation
   JOINT Chest3
   {
    OFFSET 0.000000 9.521100 0.000000
    CHANNELS 3 Yrotation Xrotation Zrotation
    JOINT Chest4
    {
     OFFSET 0.000000 9.511400 0.000000
     CHANNELS 3 Yrotation Xrotation Zrotation
     JOINT Neck
     {
      OFFSET 0.000000 14.375100 0.000000
      CHANNELS 3 Yrotation Xrotation Zrotation
      JOINT Head
      {
       OFFSET 0.000000 8.901200 0.004600
       CHANNELS 3 Yrotation Xrotation Zrotation
       End Site
       {
        OFFSET 0.000000 16.962200 0.002400
       }
      }
     }
     JOINT RightCollar
     {
      OFFSET -2.920100 9.518800 0.000000
      CHANNELS 3 Yrotation Xrotation Zrotation
      JOINT RightShoulder
      {
       OFFSET -13.664500 0.000000 0.000000
       CHANNELS 3 Yrotation Xrotation Zrotation
       JOINT RightElbow
       {
        OFFSET 0.000000 -29.999200 0.000000
        CHANNELS 3 Yrotation Xrotation Zrotation
        JOINT RightWrist
        {
         OFFSET 0.000000 -24.253600 0.000000
         CHANNELS 3 Yrotation Xrotation Zrotation
         End Site
         {
          OFFSET 0.000000 -17.918900 0.000000
         }
        }
       }
      }
     }
     JOINT LeftCollar
     {
      OFFSET 2.920100 9.518800 0.000000
      CHANNELS 3 Yrotation Xrotation Zrotation
      JOINT LeftShoulder
      {
       OFFSET 13.664500 0.000000 0.000000
       CHANNELS 3 Yrotation Xrotation Zrotation
       JOINT LeftElbow
       {
        OFFSET 0.000000 -29.999200 0.000000
        CHANNELS 3 Yrotation Xrotation Zrotation
        JOINT LeftWrist
        {
         OFFSET 0.000000 -24.253600 0.000000
         CHANNELS 3 Yrotation Xrotation Zrotation
         End Site
         {
          OFFSET 0.000000 -17.918900 0.000000
         }
        }
       }
      }
     }
    }
   }
  }
 }
 JOINT RightHip
 {
  OFFSET -7.797300 0.005300 0.000500
  CHANNELS 3 Yrotation Xrotation Zrotation
  JOINT RightKnee
  {
   OFFSET 0.000000 -40.663400 -0.000500
   CHANNELS 3 Yrotation Xrotation Zrotation
   JOINT RightAnkle
   {
    OFFSET 0.000000 -39.523700 -0.000900
    CHANNELS 3 Yrotation Xrotation Zrotation
    JOINT RightToe
    {
     OFFSET 0.000000 -6.418000 14.485300
     CHANNELS 3 Yrotation Xrotation Zrotation
     End Site
     {
      OFFSET 0.000000 -1.465200 6.326400
     }
    }
   }
  }
 }
 JOINT LeftHip
 {
  OFFSET 7.797300 0.005300 0.000500
  CHANNELS 3 Yrotation Xrotation Zrotation
  JOINT LeftKnee
  {
   OFFSET 0.000000 -40.663400 -0.000500
   CHANNELS 3 Yrotation Xrotation Zrotation
   JOINT LeftAnkle
   {
    OFFSET 0.000000 -39.523700 -0.000900
    CHANNELS 3 Yrotation Xrotation Zrotation
    JOINT LeftToe
    {
     OFFSET 0.000000 -6.418000 14.485300
     CHANNELS 3 Yrotation Xrotation Zrotation
     End Site
     {
      OFFSET 0.000000 -1.465200 6.326400
     }
    }
   }
  }
 }
}
MOTION
Frames: 15
Frame Time: 0.008333
0.000000 86.422400 0.000000 0.000000 -5.767877 0.000000 0.000000 11.653817 0.000000 0.000000 -5.885947 0.000000 0.000000 -0.000000 0.000000 0.000000 -0.000000 0.000000 0.000000 12.528835 0.000000 0.000000 0.711642 0.000000 0.000000 -0.000000 0.000000 0.000000 0.000000 -90.000000 0.000000 -2.309062 0.000000 0.000000 2.309062 0.000000 0.000000 -0.000000 0.000000 0.000000 -0.000000 90.000000 0.000000 -2.309062 0.000000 0.000000 2.309062 0.000000 0.000000 8.520406 0.000000 0.000000 1.905762 0.000000 -0.000000 -4.658285 0.000000 0.000000 -0.000000 0.000000 0.000000 8.520406 0.000000 0.000000 1.905762 0.000000 -0.000000 -4.658285 0.000000 0.000000 -0.000000 0.000000
-22.062331 126.770152 72.975643 -168.918410 -36.625706 -2.307606 -0.897065 18.624379 -0.462968 -0.071156 2.094024 -0.067430 -0.119097 3.465553 -0.113145 -0.623791 16.054925 -0.598480 -0.321423 19.883641 0.308331 -0.411203 -4.682129 0.400239 -1.634617 -4.417797 0.130089 3.325987 -13.922221 -9.983761 48.234533 -62.338983 -19.893287 -7.495366 1.752402 -38.781087 -5.620590 -4.252925 0.359462 -4.436264 -19.244046 5.098482 -33.890441 -51.746583 18.193500 -22.293133 6.783514 15.782447 9.226890 -50.488448 -13.978683 -158.247836 58.822515 -153.939579 7.884181 -6.826597 7.251477 -0.547953 0.509472 -0.244164 -10.465933 -40.523259 -11.727740 38.564050 75.883265 25.542086 -0.824393 -1.176332 8.908989 -0.100791 0.216741 -0.044736
-22.078995 126.773103 72.974706 -169.160821 -36.705114 -2.173649 -0.891042 18.663246 -0.661292 -0.076917 2.099524 -0.072996 -0.128721 3.474196 -0.122436 -0.673254 16.070456 -0.646656 -0.308184 19.866760 0.277028 -0.389982 -4.701527 0.364044 -1.777137 -4.250360 0.287714 3.167278 -13.899254 -9.903575 44.868840 -63.562744 -17.225763 -7.894063 0.883638 -36.632115 -5.589624 -4.102653 0.460725 -4.115223 -19.096032 4.994102 -31.770593 -52.487246 16.556267 -21.527984 6.707329 14.227167 9.728099 -50.782645 -14.237203 -160.027578 58.399799 -155.452556 8.018837 -7.457145 6.993794 -0.087998 0.381889 -0.039173 -10.460720 -40.377466 -11.653251 37.444133 76.075512 24.306781 -0.626556 -1.454740 9.113604 -0.046877 0.203223 -0.020815
-22.084088 126.768553 72.981326 -169.320655 -36.709154 -2.159440 -0.917506 18.638568 -0.766459 -0.084846 2.104430 -0.078433 -0.142019 3.481959 -0.131561 -0.739891 16.083462 -0.696005 -0.312165 19.868436 0.248408 -0.387658 -4.699759 0.334574 -1.931761 -4.079608 0.440291 2.899749 -13.865915 -9.813318 40.285570 -64.932169 -13.377769 -8.413597 -0.069966 -34.137836 -5.546125 -3.961639 0.539366 -3.802380 -18.919516 4.909581 -29.326204 -53.254907 14.602628 -20.451624 6.529793 12.668085 10.158103 -51.200114 -14.466477 -161.777631 57.936017 -156.918791 8.229918 -8.112079 6.879199 0.103841 0.273933 0.046189 -10.687086 -40.317250 -11.427544 35.968303 76.295364 22.691111 -0.354669 -1.746821 9.315698 -0.034451 0.203167 -0.015306
-22.089906 126.761492 72.989691 -169.426860 -36.689627 -2.175685 -0.980784 18.603618 -0.856809 -0.094302 2.107737 -0.083691 -0.157873 3.487230 -0.140496 -0.818623 16.090830 -0.745756 -0.331754 19.883427 0.223828 -0.402885 -4.682785 0.313004 -2.096252 -3.899808 0.579801 2.487077 -13.830299 -9.703102 34.255560 -66.366263 -8.061364 -9.097667 -1.031173 -31.313881 -5.489896 -3.825437 0.600850 -3.453594 -18.713763 4.831245 -26.480437 -54.028602 12.198336 -19.021676 6.215589 11.249532 10.660901 -51.663836 -14.806082 -163.541974 57.450541 -158.357058 8.414378 -8.750168 6.835367 0.142821 0.179193 0.063445 -10.991724 -40.300995 -11.181362 34.426140 76.518075 21.005571 -0.107209 -2.020242 9.503527 -0.023275 0.173204 -0.010339
-22.097063 126.754413 72.996064 -169.491068 -36.668545 -2.210803 -1.079017 18.580987 -0.938974 -0.104293 2.109430 -0.088433 -0.174506 3.489821 -0.148588 -0.900768 16.092612 -0.792083 -0.366430 19.904155 0.200181 -0.434379 -4.659157 0.295842 -2.271779 -3.711151 0.695993 1.903859 -13.799186 -9.566470 26.572723 -67.677655 -1.031056 -10.042279 -1.976219 -28.275462 -5.423766 -3.692827 0.649946 -3.023019 -18.481356 4.742299 -23.111338 -54.772430 9.170093 -17.203669 5.731613 10.135768 11.235774 -52.141928 -15.256321 -165.330569 56.961284 -159.773718 8.501192 -9.380907 6.773810 0.138320 0.139408 0.061409 -11.289071 -40.299236 -10.960973 33.044373 76.728595 19.508489 0.077460 -2.330737 9.670388 -0.018160 0.150562 -0.008066
-22.103927 126.746779 73.000870 -169.545218 -36.637671 -2.252241 -1.192858 18.563411 -1.008677 -0.113902 2.109288 -0.092319 -0.190377 3.489497 -0.155191 -0.979019 16.088606 -0.831553 -0.416278 19.927453 0.171850 -0.480888 -4.632447 0.277086 -2.452234 -3.519307 0.781350 1.143570 -13.771763 -9.402757 17.236299 -68.635069 7.747259 -11.266375 -2.826868 -25.191171 -5.345944 -3.559249 0.692819 -2.490224 -18.234986 4.629773 -19.071526 -55.427888 5.354559 -15.064866 5.050874 9.369504 11.864169 -52.640802 -15.786365 -167.097601 56.476548 -161.142785 8.535713 -9.967667 6.645677 0.110139 0.129951 0.048889 -11.494116 -40.309818 -10.794265 32.051759 76.912468 18.460556 0.178442 -2.673637 9.804343 -0.018766 0.109162 -0.008330
-22.109592 126.738907 73.003930 -169.605874 -36.597312 -2.295691 -1.310366 18.551598 -1.062818 -0.122525 2.107259 -0.095146 -0.204647 3.486256 -0.159990 -1.049348 16.078881 -0.862098 -0.481954 19.952125 0.135905 -0.542470 -4.604123 0.253934 -2.635526 -3.326859 0.831420 0.229185 -13.748308 -9.209433 6.686124 -69.031728 17.872280 -12.678670 -3.423096 -22.205299 -5.253586 -3.417849 0.732387 -1.864925 -17.992232 4.497088 -14.328655 -55.926870 0.724505 -12.748290 4.187044 8.820953 12.521513 -53.160180 -16.364408 -168.780434 56.003228 -162.430141 8.563191 -10.501958 6.439106 0.074685 0.145000 0.033155 -11.536189 -40.323784 -10.714656 31.641179 77.063006 18.089958 0.181769 -3.065088 9.912837 -0.026833 0.053435 -0.011900
-22.113056 126.731096 73.005519 -169.686014 -36.548123 -2.341025 -1.416571 18.544467 -1.094562 -0.129967 2.104029 -0.096737 -0.217066 3.481067 -0.162837 -1.110029 16.065581 -0.882505 -0.562964 19.974457 0.092527 -0.618629 -4.578354 0.226410 -2.826733 -3.134924 0.842832 -0.787216 -13.728810 -8.981505 -4.217471 -68.709131 28.451563 -14.151843 -3.705680 -19.307645 -5.150219 -3.270203 0.766235 -1.173226 -17.763083 4.357768 -9.032844 -56.207766 -4.562072 -10.342792 3.174830 8.339355 13.185731 -53.699622 -16.957653 -170.324775 55.554108 -163.606665 8.632820 -10.975873 6.167706 0.047031 0.172473 0.020881 -11.375147 -40.340453 -10.735476 31.931983 77.180276 18.537793 0.082360 -3.491991 10.001033 -0.041353 -0.007690 -0.018319
-22.113459 126.723584 73.006343 -169.789878 -36.490838 -2.392891 -1.504485 18.538780 -1.100669 -0.136215 2.100553 -0.097137 -0.227479 3.475512 -0.163656 -1.160275 16.052101 -0.892386 -0.654716 19.990188 0.044537 -0.705140 -4.559865 0.196400 -3.022356 -2.948283 0.819538 -1.846393 -13.703865 -8.716601 -14.505499 -67.659113 38.441393 -15.547614 -3.773427 -16.437072 -5.044037 -3.123717 0.797240 -0.451613 -17.550308 4.220731 -3.434228 -56.233937 -10.241474 -7.853995 2.031624 7.836701 13.825517 -54.257014 -17.525341 -171.704261 55.147883 -164.662708 8.751761 -11.389939 5.870200 0.039026 0.203583 0.017332 -11.023696 -40.365277 -10.837857 32.957448 77.261798 19.825011 -0.113505 -3.925388 10.076008 -0.060237 -0.069463 -0.026656
-22.113232 126.719070 73.004246 -169.883515 -36.451761 -2.462134 -1.597825 18.554989 -1.096251 -0.141108 2.097962 -0.096524 -0.235529 3.471480 -0.162676 -1.198567 16.042378 -0.892494 -0.752063 19.998319 -0.001535 -0.798066 -4.549861 0.169657 -3.218071 -2.769947 0.774561 -2.893891 -13.665239 -8.417305 -23.512048 -66.068239 47.133057 -16.745669 -3.787305 -13.628233 -4.946207 -2.986822 0.831850 0.246674 -17.349362 4.094844 2.235932 -56.009212 -16.050918 -5.265006 0.753157 7.256328 14.398775 -54.798839 -18.042750 -172.935419 54.805877 -165.617341 8.863795 -11.769525 5.581637 0.064114 0.263672 0.028489 -10.545715 -40.375358 -11.006382 34.586053 77.299736 21.784105 -0.366950 -4.329047 10.156965 -0.088152 -0.146820 -0.038957
-22.109685 126.715725 73.002553 -169.998479 -36.413654 -2.544177 -1.658705 18.570064 -1.066020 -0.144709 2.097675 -0.095108 -0.241415 3.471048 -0.160395 -1.225392 16.040661 -0.884774 -0.850449 19.998457 -0.038232 -0.894200 -4.548772 0.153100 -3.411287 -2.605372 0.717766 -3.888679 -13.603230 -8.089880 -31.111719 -64.200024 54.372923 -17.647361 -3.878035 -10.973137 -4.865398 -2.868689 0.870170 0.867144 -17.153761 3.992880 7.808552 -55.561299 -21.772100 -2.603448 -0.641619 6.527704 14.914374 -55.341540 -18.481401 -174.042247 54.545225 -166.482277 8.965400 -12.057460 5.282997 0.101650 0.311393 0.045210 -9.992083 -40.378215 -11.178306 36.527941 77.287040 24.090030 -0.660052 -4.734938 10.246083 -0.102734 -0.193623 -0.045370
-22.107169 126.717397 72.997303 -170.082425 -36.416491 -2.649252 -1.731854 18.623822 -1.033054 -0.147452 2.100822 -0.093098 -0.246027 3.475954 -0.157143 -1.244329 16.050259 -0.871016 -0.944948 19.986564 -0.060597 -0.989421 -4.561211 0.150919 -3.598161 -2.462799 0.653018 -4.798934 -13.505275 -7.742593 -37.548962 -62.263456 60.384593 -18.282002 -4.082856 -8.552317 -4.801839 -2.777512 0.910954 1.389149 -16.959170 3.918262 13.190784 -54.920974 -27.289699 0.030818 -2.088576 5.572588 15.356275 -55.834891 -18.861738 -175.028988 54.381390 -167.242496 9.009985 -12.275273 4.914923 0.176602 0.394987 0.078622 -9.438792 -40.328108 -11.356226 38.456466 77.229224 26.390617 -0.926116 -5.121527 10.346473 -0.112766 -0.229271 -0.049772
-22.102287 126.720769 72.993048 -170.182798 -36.430018 -2.763919 -1.774806 18.682517 -0.980849 -0.149767 2.107903 -0.090647 -0.249848 3.487144 -0.153106 -1.258000 16.072812 -0.852550 -1.033337 19.959039 -0.067867 -1.081560 -4.591323 0.163327 -3.776977 -2.343292 0.584335 -5.605363 -13.366834 -7.386949 -43.045425 -60.396762 65.402423 -18.842701 -4.386163 -6.467287 -4.750913 -2.715751 0.956437 1.821024 -16.762425 3.864005 18.354635 -54.141220 -32.599973 2.569920 -3.503458 4.377214 15.768628 -56.307730 -19.185173 -175.898443 54.330101 -167.886389 9.027300 -12.376269 4.466881 0.230858 0.468840 0.102897 -8.937593 -40.256258 -11.478936 40.130433 77.145944 28.411942 -1.136285 -5.527545 10.448304 -0.104430 -0.207269 -0.046117
-22.097966 126.726928 72.988506 -170.281974 -36.468110 -2.881127 -1.804036 18.759408 -0.927117 -0.151800 2.118904 -0.087891 -0.253045 3.504530 -0.148495 -1.267444 16.108179 -0.830579 -1.115732 19.914385 -0.063242 -1.170021 -4.640804 0.186983 -3.948512 -2.245340 0.516647 -6.310731 -13.190364 -7.034870 -47.719126 -58.714434 69.566261 -19.489735 -4.782247 -4.817538 -4.711698 -2.681967 1.008428 2.179485 -16.564246 3.828322 23.266474 -53.266551 -37.694109 5.024651 -4.796194 3.010518 16.165816 -56.736237 -19.482909 -176.661048 54.403830 -168.423377 9.003419 -12.377337 3.941306 0.254360 0.539553 0.113498 -8.557258 -40.161655 -11.536623 41.455718 77.059436 30.023017 -1.248772 -5.924854 10.529034 -0.087748 -0.159201 -0.038786
